<svg width="143" height="42" viewBox="0 0 143 42" fill="none" xmlns="http://www.w3.org/2000/svg">
<path d="M67.8854 10.564H74.3155V31.2751H69.5507V17.3475L63.4551 31.2751L57.0398 17.33V31.2751H52.5938V10.564H58.949L63.5309 21.2839L67.8854 10.564Z" fill="#4D5154"/>
<path d="M76.6855 10.564V31.2751H88.6595V27.7639H81.3275V22.4948H88.3564V18.9504H81.3275V14.1987H88.6595V10.564H76.6855Z" fill="#4D5154"/>
<path d="M106.516 20.9231C106.516 28.6326 114.578 34.8019 123.072 30.6755V26.2383C116.536 30.8083 110.846 26.2278 110.939 21.1001C111.003 17.6922 113.298 14.4513 117.736 14.1986C119.919 14.0749 121.398 14.6164 123.072 16.2166V11.6023C116.934 7.97215 106.516 11.9676 106.516 20.9231Z" fill="#4D5154"/>
<path d="M125.033 31.2749H129.447V10.7629H125.033V31.2749Z" fill="#4D5154"/>
<path d="M134.985 20.1685L141.655 10.8081H136.5L129.893 20.151L137.564 31.2749H142.625L134.985 20.1685Z" fill="#4D5154"/>
<path d="M90.7207 10.5637V31.2749H95.3788V20.1479L103.079 31.2749H108.044L101.948 22.5784C104.773 21.5122 105.69 19.1481 105.69 16.7852C105.69 14.4241 103.704 10.5637 98.893 10.5637H90.7207ZM95.3788 14.0102H97.4121C100.85 14.0102 101.033 16.253 101.033 17.0905C101.033 18.6907 99.6729 20.0533 97.917 20.0533H95.3788V14.0102Z" fill="#4D5154"/>
<path d="M10.8 10.5642C10.8 4.84414 15.4465 0.207764 21.1771 0.207764C26.9095 0.207764 31.5542 4.84414 31.5542 10.5642H10.8ZM10.8 31.2763C10.8 25.5572 15.4465 20.9198 21.1771 20.9198C15.4465 20.9198 10.8 16.2844 10.8 10.5642C5.06945 10.5642 0.423828 15.2007 0.423828 20.9198C0.423828 26.6409 5.06945 31.2763 10.8 31.2763ZM10.8 31.2763C10.8 36.9973 15.4465 41.6328 21.1771 41.6328C26.9095 41.6328 31.5542 36.9973 31.5542 31.2763H10.8ZM21.1771 20.9198C26.9095 20.9198 31.5542 25.5572 31.5542 31.2763C37.2856 31.2763 41.9322 26.6409 41.9322 20.9198C41.9322 15.2007 37.2856 10.5642 31.5542 10.5642C31.5542 16.2844 26.9095 20.9198 21.1771 20.9198Z" fill="#4D5154"/>
</svg>
