<svg width="222" height="43" viewBox="0 0 222 43" fill="none" xmlns="http://www.w3.org/2000/svg">
<path d="M215.339 10.2191C215.339 9.98353 215.148 9.74799 214.957 9.65393C214.479 9.41839 213.763 9.23003 212.329 9.23003C209.08 9.23003 206.165 10.8311 204.923 13.4687V10.2191C204.923 9.9364 204.684 9.70086 204.397 9.70086H199.523C199.236 9.70086 198.998 9.9364 198.998 10.2191V32.166C198.998 32.4485 199.236 32.6837 199.523 32.6837H204.636C204.923 32.6837 205.161 32.4485 205.161 32.166V22.2756C205.161 17.8486 208.268 15.6822 212.329 15.6822C213.285 15.6822 214.24 15.8705 214.671 16.0588C215.005 16.1531 215.339 15.9176 215.339 15.588V10.2191ZM182.608 27.268C179.119 27.268 176.396 24.8188 176.396 21.1451C176.396 17.4718 179.119 15.0229 182.608 15.0229C186.096 15.0229 188.82 17.4718 188.82 21.1451C188.82 24.866 186.144 27.268 182.608 27.268ZM182.608 9.13572C175.44 9.13572 170.089 13.9866 170.089 21.1925C170.089 28.3511 175.44 33.2492 182.608 33.2492C189.775 33.2492 195.127 28.3984 195.127 21.1925C195.175 14.0336 189.823 9.13572 182.608 9.13572ZM154.177 27.268C150.688 27.268 147.965 24.8188 147.965 21.1451C147.965 17.4718 150.688 15.0229 154.177 15.0229C157.665 15.0229 160.389 17.4718 160.389 21.1451C160.341 24.866 157.665 27.268 154.177 27.268ZM154.177 9.13572C147.009 9.13572 141.657 13.9866 141.657 21.1925C141.657 28.3511 147.009 33.2492 154.177 33.2492C161.344 33.2492 166.696 28.3984 166.696 21.1925C166.696 14.0336 161.344 9.13572 154.177 9.13572ZM125.746 27.3621C122.257 27.3621 119.629 24.9133 119.629 21.1925C119.629 17.4718 122.257 15.0229 125.746 15.0229C129.186 15.0229 131.862 17.3775 131.862 21.1925C131.862 24.9601 129.186 27.3621 125.746 27.3621ZM137.309 0.517197H132.196C131.91 0.517197 131.671 0.752483 131.671 1.03535V12.9978C130.094 10.7842 127.466 9.08879 123.835 9.08879C118.148 9.08879 113.322 13.4215 113.322 21.1925C113.322 28.9634 118.148 33.2492 123.93 33.2492C127.322 33.2492 129.998 31.7891 131.671 29.4342V32.1187C131.671 32.4012 131.91 32.6369 132.197 32.6369H137.309C137.596 32.6369 137.835 32.4012 137.835 32.1187V0.988026C137.835 0.752487 137.596 0.517197 137.309 0.517197ZM109.929 25.7134C109.929 30.9411 106.059 33.2018 99.8467 33.2018C95.5463 33.2018 91.8668 32.0715 89.7644 29.7167C89.6212 29.5283 89.6212 29.2458 89.7644 29.0573L92.727 25.2897C92.9182 25.0545 93.3003 25.0545 93.4915 25.2425C95.0682 26.7971 97.4575 27.7858 100.468 27.7858C102.188 27.7858 103.574 27.3147 103.574 26.0432C103.574 24.8188 102.332 24.5364 98.4133 23.6884C94.9731 22.9821 90.6722 21.4281 90.6722 16.4356C90.6722 11.7733 94.3998 9.13572 100.516 9.13572C104.53 9.13572 107.397 10.3133 109.451 12.1972C109.643 12.3853 109.643 12.668 109.499 12.9035L106.68 16.4829C106.489 16.7185 106.154 16.7654 105.963 16.5768C104.577 15.3525 102.284 14.5989 100.038 14.5989C98.1264 14.5989 97.0754 15.2112 97.0754 16.2001C97.0754 17.3305 98.3176 17.613 102.475 18.508C106.489 19.4027 109.929 20.91 109.929 25.7134ZM86.2766 25.7134C86.2766 30.9411 82.4058 33.2018 76.1938 33.2018C71.8934 33.2018 68.2144 32.0715 66.1115 29.7167C65.9683 29.5283 65.9683 29.2458 66.1115 29.0573L69.0741 25.2897C69.2653 25.0545 69.6479 25.0545 69.8386 25.2425C71.4158 26.7971 73.8051 27.7858 76.8152 27.7858C78.5355 27.7858 79.9209 27.3147 79.9209 26.0432C79.9209 24.8188 78.6787 24.5364 74.7604 23.6884C71.3202 22.9821 67.0193 21.4281 67.0193 16.4356C67.0193 11.7733 70.7469 9.13572 76.8627 9.13572C80.8767 9.13572 83.7437 10.3133 85.7985 12.1972C85.9898 12.3853 85.9898 12.668 85.8461 12.9035L83.0272 16.4829C82.8359 16.7185 82.5015 16.7654 82.3102 16.5768C80.9243 15.3525 78.6312 14.5989 76.3851 14.5989C74.474 14.5989 73.4225 15.2112 73.4225 16.2001C73.4225 17.3305 74.6647 17.613 78.8224 18.508C82.8359 19.4027 86.2766 20.91 86.2766 25.7134ZM55.5996 23.4059C55.5996 25.9491 53.4967 28.1154 50.2474 28.1154C48.0974 28.1154 46.9504 27.1734 46.9504 25.6666C46.9504 24.3951 47.9541 23.4059 49.8176 23.1234L55.5996 22.4168V23.4059ZM51.5376 9.18285C46.6638 9.18285 42.9846 10.7842 41.312 13.9866C41.2165 14.2222 41.2642 14.5048 41.5031 14.6461L45.2304 17.2832C45.4692 17.4718 45.8039 17.3775 45.9472 17.1422C46.9985 15.3053 49.2918 14.6931 51.5376 14.6931C54.3094 14.6931 55.5996 15.6349 55.5996 17.0009V17.3775C55.5996 17.9429 55.2647 18.2255 54.4045 18.3194L48.0017 18.8847C43.7012 19.3086 40.5475 21.899 40.5475 26.0903C40.5475 30.329 43.7969 33.2492 48.4318 33.2492C52.0633 33.2492 54.4045 31.5066 55.5996 29.6695V32.26C55.5996 32.5424 55.8385 32.7781 56.1248 32.7781H61.2379C61.5247 32.7781 61.7636 32.5424 61.7636 32.26V18.5549C61.7636 12.1498 58.3229 9.18285 51.5376 9.18285ZM36.3424 1.03535V32.166C36.3424 32.4485 36.1035 32.6837 35.8169 32.6837H30.6562C30.3696 32.6837 30.1309 32.4485 30.1309 32.166V1.03535C30.1309 0.752483 30.3696 0.517197 30.6562 0.517197H35.8169C36.1035 0.517197 36.3424 0.752483 36.3424 1.03535ZM12.9763 27.3147C9.48837 27.3147 6.85997 24.866 6.85997 21.1451C6.85997 17.4248 9.48837 14.9759 12.9763 14.9759C16.4647 14.9759 19.045 17.3305 19.045 21.1451C19.045 24.9133 16.4647 27.3147 12.9763 27.3147ZM24.5399 9.70086H19.4272C19.1404 9.70086 18.9015 9.9364 18.9015 10.2191V12.9035C17.6117 10.8311 14.8876 9.13572 11.304 9.13572C5.52228 9.13572 0.552734 13.4215 0.552734 21.0984C0.552734 28.7276 5.28332 32.9193 11.4953 32.9193C14.84 32.9193 17.468 31.5537 18.9971 29.3871V30.8472C18.9971 34.1437 17.3725 36.7815 12.164 36.7815C9.53599 36.7815 7.43356 35.9337 5.56992 34.285C5.33096 34.097 4.9487 34.1437 4.8054 34.3795L2.51166 38.1944C2.22506 38.6653 2.27289 38.9477 2.46402 39.1363C4.85323 41.1613 7.95933 42.4329 12.4509 42.4329C22.2465 42.4329 25.1135 37.0639 25.1135 31.1297V10.1719C25.0659 9.88942 24.8269 9.70086 24.5399 9.70086Z" fill="#4D5154"/>
<path d="M219.505 8.36755H219.8C219.893 8.36755 219.972 8.35877 220.037 8.34122C220.102 8.32372 220.155 8.29818 220.195 8.26467C220.235 8.23116 220.264 8.19046 220.282 8.14194C220.3 8.09361 220.309 8.03751 220.309 7.97402C220.309 7.91228 220.3 7.85792 220.285 7.81114C220.268 7.76441 220.242 7.72581 220.205 7.69564C220.169 7.66582 220.121 7.64303 220.061 7.62806C220.002 7.61285 219.929 7.60542 219.841 7.60542H219.505V8.36755ZM219.505 8.65331V9.54067H219.108V7.30485H219.841C220.132 7.30485 220.348 7.35687 220.489 7.4615C220.63 7.56588 220.7 7.71978 220.7 7.92375C220.7 8.08114 220.654 8.2146 220.564 8.32486C220.473 8.43513 220.338 8.51148 220.159 8.55317C220.187 8.56993 220.212 8.59058 220.233 8.61591C220.254 8.64104 220.274 8.66987 220.293 8.70359L220.874 9.54067H220.497C220.44 9.54067 220.399 9.51982 220.372 9.47813L219.861 8.72114C219.845 8.6995 219.827 8.68254 219.806 8.67107C219.785 8.65935 219.752 8.65331 219.708 8.65331H219.505ZM218.268 8.42775C218.268 8.57636 218.287 8.71954 218.325 8.85629C218.362 8.99343 218.415 9.12205 218.485 9.24124C218.555 9.36068 218.637 9.469 218.734 9.5658C218.831 9.6628 218.939 9.74599 219.057 9.81516C219.176 9.88473 219.304 9.93829 219.441 9.9757C219.578 10.0133 219.721 10.0322 219.871 10.0322C220.095 10.0322 220.305 9.99031 220.501 9.90673C220.696 9.82314 220.866 9.70899 221.012 9.56466C221.157 9.41988 221.271 9.25062 221.355 9.05577C221.439 8.86098 221.481 8.65177 221.481 8.42775C221.481 8.27908 221.461 8.1353 221.424 7.99641C221.385 7.85792 221.332 7.72875 221.262 7.60936C221.193 7.48972 221.109 7.38085 221.012 7.28226C220.914 7.18366 220.806 7.09953 220.687 7.03016C220.568 6.96104 220.44 6.90708 220.302 6.86848C220.164 6.83027 220.02 6.81083 219.871 6.81083C219.648 6.81083 219.438 6.85292 219.243 6.93745C219.047 7.02198 218.877 7.13733 218.734 7.2834C218.589 7.42973 218.476 7.60098 218.393 7.79753C218.31 7.99372 218.268 8.20388 218.268 8.42775ZM218.014 8.42775C218.014 8.25884 218.036 8.09615 218.08 7.94011C218.124 7.78391 218.187 7.63779 218.267 7.50139C218.348 7.36524 218.445 7.24171 218.559 7.1305C218.672 7.01944 218.797 6.92378 218.935 6.84334C219.072 6.7633 219.22 6.70151 219.377 6.65807C219.535 6.61443 219.7 6.59284 219.871 6.59284C220.042 6.59284 220.207 6.61443 220.366 6.65807C220.524 6.70151 220.672 6.7633 220.81 6.84334C220.946 6.92378 221.072 7.01944 221.186 7.1305C221.3 7.24171 221.396 7.36524 221.477 7.50139C221.558 7.63779 221.62 7.78391 221.664 7.94011C221.708 8.09615 221.73 8.25884 221.73 8.42775C221.73 8.59487 221.708 8.7564 221.664 8.91299C221.62 9.06904 221.558 9.21496 221.477 9.35036C221.396 9.48556 221.3 9.60905 221.186 9.72011C221.072 9.83132 220.946 9.92697 220.81 10.0069C220.672 10.0871 220.524 10.1492 220.366 10.1925C220.207 10.236 220.042 10.2576 219.871 10.2576C219.7 10.2576 219.535 10.236 219.377 10.1925C219.22 10.1492 219.072 10.0871 218.935 10.0069C218.797 9.92697 218.672 9.83132 218.559 9.72011C218.445 9.60905 218.348 9.48556 218.267 9.35036C218.187 9.21496 218.124 9.06964 218.08 8.91399C218.036 8.75869 218.014 8.59661 218.014 8.42775Z" fill="#4D5154"/>
</svg>
