<svg width="268" height="50" viewBox="0 0 268 50" fill="none" xmlns="http://www.w3.org/2000/svg">
<path d="M48.632 7.70195L32.744 9.11892C29.9901 7.52106 27.2665 6.88794 24.3915 6.88794C23.6349 6.88794 22.8481 6.94824 22.0613 7.09898L5.44702 0.97886C4.78124 0.737673 4.29703 1.61198 4.87203 2.03405L15.0706 9.90278C12.9219 11.2293 10.8943 12.9779 9.10881 14.9677C6.08254 18.4348 2.26943 28.022 0.393136 32.9964C-0.393696 35.137 -0.000280376 37.5187 1.45233 39.2673C4.84176 43.3675 11.8627 50.0001 25.3599 50.0001C37.7374 50.0001 44.0018 44.4528 46.9373 40.4129C48.5715 38.1518 49.0557 35.2877 48.2386 32.6347C46.907 28.1426 44.0926 20.3643 39.5229 15.028C39.3716 14.8471 39.19 14.6662 39.0387 14.4853L48.9346 8.63655C49.4188 8.39536 49.1767 7.6718 48.632 7.70195Z" fill="#4D5154"/>
<path d="M32.0474 36.5841C30.8671 37.0062 28.204 37.6393 25.2383 36.1017C25.0869 36.0113 24.9356 36.2223 25.0567 36.3429C25.9948 37.3378 27.6593 39.1166 28.6882 39.9607C28.9001 40.1416 29.2329 40.1115 29.4145 39.9004L32.229 36.7952C32.35 36.7349 32.229 36.554 32.0474 36.5841Z" fill="#999B9D"/>
<path d="M43.0331 23.7109C41.52 20.4549 39.2805 17.4099 35.8608 17.0481C35.2556 16.9878 34.6201 17.1084 34.1056 17.4401L30.3833 19.6409C29.4451 20.1836 28.2951 20.1233 27.4478 19.46L24.2097 16.9577C23.1202 16.1135 21.8794 15.5106 20.5479 15.2091C15.0098 13.9127 11.2572 16.8069 8.41249 22.2336C5.68884 27.4192 7.20198 34.896 13.8901 36.6446C20.9413 38.5138 25.6018 30.7053 27.478 28.1126C27.8412 27.6001 28.5675 27.6001 28.9307 28.1126C31.8359 32.0319 35.7095 36.2225 39.8858 35.3783C45.3936 34.2628 44.7278 27.389 43.0331 23.7109ZM22.6057 27.8412C21.2439 28.7457 19.5189 28.5347 18.49 26.9971C17.4611 25.4595 17.915 23.7712 19.2768 22.8668C20.6387 21.9623 22.3636 22.1733 23.3926 23.7109C24.4215 25.2485 23.9676 26.9368 22.6057 27.8412ZM37.0411 28.1126C35.6793 29.017 33.9543 28.806 32.9253 27.2684C31.8964 25.7309 32.3504 24.0425 33.7122 23.1381C35.074 22.2336 36.799 22.4447 37.8279 23.9823C38.8568 25.5198 38.4029 27.2081 37.0411 28.1126Z" fill="#999B9D"/>
<path d="M28.8699 30.1024C28.5975 29.8009 28.083 29.8009 27.8107 30.1325L24.8449 33.6297C24.6936 33.7805 24.7239 34.0518 24.9055 34.1724C25.6015 34.6548 27.266 35.7401 28.9001 35.7401C30.4133 35.7401 31.7751 35.1673 32.4409 34.8357C32.6527 34.7151 32.7133 34.4437 32.5619 34.2628L28.8699 30.1024Z" fill="#999B9D"/>
<path d="M62.5225 40.0211V16.626H67.7277V26.786H85.0077V16.626H90.2129V40.0211H85.0077V31.1575H67.7277V40.0211H62.5225Z" fill="#4D5154"/>
<path d="M104.981 40.594C101.531 40.594 98.7472 39.6896 96.659 37.9108C94.5407 36.1321 93.5117 33.7805 93.5117 30.8561C93.5117 27.9317 94.5709 25.5801 96.659 23.8014C98.7774 22.0226 101.531 21.1182 104.981 21.1182C108.462 21.1182 111.246 22.0226 113.364 23.8014C115.482 25.5801 116.511 27.9317 116.511 30.8561C116.511 33.7805 115.452 36.1321 113.364 37.9108C111.246 39.7197 108.431 40.594 104.981 40.594ZM104.981 36.5843C106.979 36.5843 108.613 36.0718 109.823 35.0166C111.034 33.9614 111.669 32.6047 111.669 30.8862C111.669 29.1678 111.064 27.7508 109.823 26.7258C108.613 25.6706 106.979 25.158 104.981 25.158C102.984 25.158 101.41 25.7007 100.17 26.7559C98.959 27.8111 98.3235 29.1979 98.3235 30.9164C98.3235 32.6348 98.9288 33.9915 100.17 35.0467C101.38 36.0718 102.984 36.5843 104.981 36.5843Z" fill="#4D5154"/>
<path d="M130.311 40.594C126.861 40.594 124.077 39.6896 121.989 37.9108C119.871 36.1321 118.842 33.7805 118.842 30.8561C118.842 27.9317 119.901 25.5801 121.989 23.8014C124.108 22.0226 126.861 21.1182 130.311 21.1182C133.792 21.1182 136.576 22.0226 138.694 23.8014C140.813 25.5801 141.842 27.9317 141.842 30.8561C141.842 33.7805 140.782 36.1321 138.694 37.9108C136.576 39.7197 133.792 40.594 130.311 40.594ZM130.311 36.5843C132.309 36.5843 133.943 36.0718 135.153 35.0166C136.364 33.9614 136.999 32.6047 136.999 30.8862C136.999 29.1678 136.394 27.7508 135.153 26.7258C133.943 25.6706 132.309 25.158 130.311 25.158C128.314 25.158 126.74 25.7007 125.5 26.7559C124.289 27.8111 123.654 29.1979 123.654 30.9164C123.654 32.6348 124.259 33.9915 125.5 35.0467C126.74 36.0718 128.344 36.5843 130.311 36.5843Z" fill="#4D5154"/>
<path d="M151.465 40.3829C149.165 40.3829 147.864 39.3277 147.198 38.363C146.502 37.3982 145.957 36.1621 145.957 33.4488V25.4896H143.324V21.7512H146.714V16.626H151.193V21.7512H156.489V25.4896H151.193V32.3333C151.162 34.3834 151.495 35.1069 151.979 35.6195C152.857 36.4938 155.52 35.8908 156.489 35.2878V39.2373C155.339 40.0211 153.341 40.3829 151.465 40.3829Z" fill="#4D5154"/>
<path d="M169.743 40.5939C166.475 40.5939 163.207 40.1115 159.908 39.1769V35.0164C162.662 36.0716 165.658 36.5842 168.896 36.5842C171.226 36.5842 172.891 36.4334 173.889 36.1319C174.888 35.8305 175.402 35.3179 175.402 34.5642C175.402 33.8708 174.858 33.3583 173.738 33.087C172.618 32.8156 171.256 32.6347 169.653 32.5443C168.049 32.484 166.445 32.3332 164.841 32.1222C163.237 31.9112 161.875 31.3986 160.755 30.6148C159.636 29.8008 159.091 28.6853 159.091 27.208C159.091 25.2182 160.059 23.7108 161.996 22.6858C163.933 21.6607 166.566 21.1482 169.895 21.1482C172.527 21.1482 175.584 21.4798 179.064 22.1732V26.183C176.068 25.5499 173.163 25.2182 170.439 25.2182C166.293 25.2182 164.205 25.8513 164.205 27.1176C164.205 27.7507 164.78 28.2029 165.9 28.4441C167.02 28.6853 168.381 28.8662 169.985 28.9868C171.589 29.0772 173.163 29.2581 174.767 29.4691C176.371 29.7103 177.733 30.2229 178.852 31.067C179.972 31.9112 180.547 33.0568 180.547 34.5341C180.547 36.5842 179.579 38.0916 177.672 39.0865C175.766 40.1115 173.133 40.5939 169.743 40.5939Z" fill="#4D5154"/>
<path d="M205.454 21.7512V40.0513H199.735L200.461 32.5142H200.158C199.311 37.9409 196.285 40.6241 191.14 40.6241C188.507 40.5638 186.57 39.7197 185.329 38.0313C184.119 36.3732 183.483 33.5694 183.483 29.6802V21.7512H188.689V29.0773C188.689 31.8208 189.082 33.7804 189.869 34.9562C190.656 36.132 191.927 36.7048 193.712 36.7048C195.71 36.7048 197.283 35.8004 198.433 33.9915C199.613 32.1826 200.188 29.8008 200.188 26.786V21.7512H205.454Z" fill="#4D5154"/>
<path d="M212.535 19.9724C211.536 19.9724 210.749 19.7313 210.175 19.2187C209.6 18.7062 209.327 17.9826 209.327 17.0179C209.327 16.0532 209.6 15.2994 210.175 14.8171C210.749 14.3347 211.506 14.0935 212.535 14.0935C213.564 14.0935 214.351 14.3347 214.926 14.8171C215.501 15.2994 215.803 16.023 215.803 17.0179C215.803 18.9775 214.714 19.9724 212.535 19.9724ZM209.993 40.0211V21.7512H215.198V40.0513H209.993V40.0211Z" fill="#4D5154"/>
<path d="M244.583 40.594C241.254 40.594 238.591 39.6896 236.563 37.9108C234.536 36.1321 233.537 33.7805 233.537 30.8561C233.537 27.9317 234.536 25.5801 236.563 23.8014C238.591 22.0226 241.254 21.1182 244.583 21.1182C247.851 21.1182 250.515 21.8719 252.542 23.4094C254.57 24.947 255.599 26.9368 255.659 29.4391V32.4238H238.561C238.863 33.9011 239.62 34.9864 240.891 35.6497C242.162 36.3129 244.008 36.6446 246.459 36.6446C249.697 36.6446 251.15 36.1321 252.724 35.5592C252.966 35.4688 254.691 34.7151 254.842 34.6548V38.8153C252.996 39.5087 251.392 39.9911 250.03 40.2322C248.638 40.4734 246.822 40.594 244.583 40.594ZM238.409 29.9215L250.666 29.62C250.605 28.0221 250.061 26.8464 249.092 26.1529C248.124 25.4595 246.611 25.0977 244.583 25.0977C242.616 25.0977 241.163 25.4595 240.165 26.2132C239.166 26.9971 238.591 28.2332 238.409 29.9215Z" fill="#4D5154"/>
<path d="M264.92 26.3941C265.283 26.0926 265.434 25.7007 265.434 25.1882C265.434 24.6757 265.253 24.2837 264.92 23.9823C264.557 23.6808 264.072 23.53 263.467 23.53H261.5V28.3839H262.317V26.8162H263.437C263.497 26.8162 263.558 26.8162 263.649 26.8162L264.678 28.3839H265.525L264.405 26.6655C264.587 26.6052 264.768 26.5147 264.92 26.3941ZM263.407 26.1529H262.317V24.2234H263.407C263.8 24.2234 264.103 24.3139 264.314 24.4646C264.526 24.6455 264.647 24.8566 264.647 25.1882C264.647 25.4897 264.526 25.7309 264.314 25.9118C264.103 26.0625 263.8 26.1529 263.407 26.1529Z" fill="#4D5154"/>
<path d="M267.221 24.2534C267.009 23.7409 266.706 23.2887 266.313 22.8967C265.919 22.5048 265.465 22.2033 264.951 21.9923C264.437 21.7812 263.862 21.6606 263.256 21.6606C262.651 21.6606 262.076 21.7812 261.562 21.9923C261.047 22.2033 260.563 22.5048 260.2 22.8967C259.806 23.2887 259.504 23.7409 259.292 24.2534C259.08 24.7659 258.959 25.3387 258.959 25.9417C258.959 26.5447 259.08 27.0874 259.292 27.63C259.504 28.1425 259.806 28.5948 260.2 28.9867C260.593 29.3786 261.047 29.6801 261.562 29.8912C262.076 30.1022 262.651 30.2228 263.256 30.2228C263.862 30.2228 264.437 30.1022 264.951 29.8912C265.465 29.6801 265.919 29.3786 266.313 28.9867C266.706 28.5948 267.009 28.1425 267.221 27.5999C267.433 27.0874 267.554 26.5145 267.554 25.9116C267.554 25.3387 267.463 24.7659 267.221 24.2534ZM266.706 27.419C266.525 27.8712 266.252 28.2631 265.919 28.6249C265.587 28.9566 265.193 29.2279 264.709 29.4389C264.255 29.6198 263.771 29.7404 263.226 29.7404C262.681 29.7404 262.197 29.65 261.743 29.4691C261.289 29.2882 260.896 29.0169 260.563 28.6852C260.23 28.3536 259.958 27.9617 259.776 27.4793C259.595 27.0271 259.504 26.5447 259.504 26.002C259.504 25.4593 259.595 24.977 259.776 24.5247C259.958 24.0725 260.23 23.6806 260.563 23.3188C260.896 22.9872 261.289 22.7158 261.743 22.5048C262.197 22.3239 262.712 22.2335 263.226 22.2335C263.771 22.2335 264.255 22.3239 264.709 22.5048C265.163 22.6857 265.556 22.957 265.889 23.2887C266.222 23.6203 266.494 24.0122 266.676 24.4644C266.858 24.9167 266.948 25.399 266.948 25.9417C266.979 26.4844 266.888 26.9668 266.706 27.419Z" fill="#4D5154"/>
<path d="M226.85 40.3829C224.55 40.3829 223.248 39.3277 222.583 38.363C221.887 37.3982 221.342 36.1621 221.342 33.4488V25.4896H218.709V21.7512H222.098V16.626H226.577V21.7512H231.873V25.4896H226.577V32.3333C226.547 34.3834 226.88 35.1069 227.364 35.6195C228.242 36.4938 230.905 35.8908 231.873 35.2878V39.2373C230.723 40.0211 228.696 40.3829 226.85 40.3829Z" fill="#4D5154"/>
</svg>
