<svg width="203" height="38" viewBox="0 0 203 38" fill="none" xmlns="http://www.w3.org/2000/svg">
<path d="M202.769 5.13238C202.769 6.77938 201.446 8.09698 199.746 8.09698C198.045 8.09698 196.723 6.77938 196.723 5.13238C196.723 3.53244 198.045 2.21484 199.746 2.21484C201.493 2.21484 202.769 3.53244 202.769 5.13238ZM197.526 5.13238C197.526 6.44998 198.47 7.48524 199.793 7.48524C201.068 7.48524 202.013 6.44998 202.013 5.17944C202.013 3.86184 201.068 2.82659 199.746 2.82659C198.47 2.82659 197.526 3.86184 197.526 5.13238ZM199.321 6.68527H198.659V3.76773C198.943 3.72067 199.321 3.67361 199.793 3.67361C200.36 3.67361 200.596 3.76773 200.832 3.9089C200.974 4.05007 201.116 4.28536 201.116 4.5677C201.116 4.8971 200.879 5.13238 200.501 5.2265V5.27356C200.785 5.36767 200.927 5.60295 201.021 5.97941C201.116 6.40293 201.163 6.59115 201.257 6.73233H200.501C200.407 6.63821 200.36 6.35587 200.265 6.02647C200.218 5.69707 200.029 5.5559 199.651 5.5559H199.321V6.68527ZM199.321 5.03827H199.651C200.029 5.03827 200.313 4.8971 200.313 4.61476C200.313 4.33241 200.124 4.19124 199.698 4.19124C199.51 4.19124 199.415 4.19124 199.321 4.2383V5.03827Z" fill="#4D5154"/>
<path d="M77.2672 22.1669C77.2672 23.8139 76.8421 25.4139 74.6693 25.4139C72.4965 25.4139 71.9297 23.3904 71.9297 21.6022C71.9297 19.4376 73.5829 17.7906 75.8974 17.7906H76.9838C77.2672 17.7906 77.2672 18.073 77.2672 18.073V22.1669ZM86.8086 26.6373H85.8639C85.5805 26.6373 85.7222 26.2138 85.7222 26.2138V14.3084C85.7222 9.03799 82.3213 6.82631 77.1255 6.82631C75.3778 6.82631 73.5829 7.10865 71.8352 7.76745C71.8352 7.76745 71.4101 8.0498 71.6935 7.48511C71.8352 7.20277 71.8352 6.92043 71.8352 6.92043C71.8352 6.92043 71.9769 6.63808 71.6935 6.49691C71.4101 6.49691 69.6624 5.93223 69.379 5.83811C69.0956 5.69694 69.0956 5.97928 69.0956 5.97928C69.0956 5.97928 66.4976 12.4732 66.3559 12.7555C66.2142 13.0378 66.3559 13.0378 66.3559 13.0378C66.3559 13.0378 68.6704 13.8378 68.9539 13.8378C69.0956 13.979 69.2373 13.8378 69.2373 13.8378C70.4654 12.332 71.6935 11.3908 74.2914 11.3908C76.3225 11.3908 77.2672 12.1908 77.2672 13.979V14.6378C77.2672 14.9201 77.1255 14.9201 77.1255 14.9201L70.985 15.0613C66.8755 15.0613 63.4746 18.0259 63.4746 23.2022C63.4746 27.3903 66.5921 29.9784 70.8432 29.9784C73.2995 29.9784 75.1889 28.8961 77.1255 27.5314C77.1255 27.5314 77.4089 26.9667 77.5506 27.5314C77.5506 27.9549 77.6923 28.4726 77.834 29.0373C77.9757 29.3196 78.1174 29.3196 78.1174 29.3196H86.8559C86.8559 29.3196 87.281 29.4608 87.281 29.0373V26.8726C87.1865 26.9197 87.1865 26.6373 86.8086 26.6373Z" fill="#4D5154"/>
<path d="M62.4322 25.2727C62.4322 24.9904 62.1488 25.2727 62.1488 25.2727C61.5819 25.5551 61.4875 25.5551 60.779 25.5551C60.1177 25.5551 58.8896 25.2727 58.8896 23.814V11.2027C58.8896 11.2027 58.8896 11.0615 59.173 11.0615H62.1488C62.1488 11.0615 62.2905 11.0615 62.4322 10.7792C62.4322 10.4968 62.999 7.81457 62.999 7.81457C62.999 7.81457 63.1407 7.53223 62.8573 7.53223H59.173C59.173 7.53223 58.8896 7.6734 58.8896 7.39105V5.74406C58.8896 4.80291 59.0313 3.57943 59.173 2.49712C59.173 2.49712 59.3147 2.35594 59.0313 2.21477C58.7479 2.21477 57.0002 1.79126 56.7168 1.79126C56.4333 1.79126 56.4333 1.93243 56.4333 1.93243C54.9218 5.17937 51.946 7.48517 48.4034 8.42631C48.4034 8.42631 48.2617 8.56748 48.2617 8.70865V10.7321C48.2617 11.0145 48.4034 11.0145 48.4034 11.0145H50.2928C50.5762 11.0145 50.5762 11.1556 50.5762 11.1556V24.1904C50.5762 28.0021 52.0877 30.0255 56.2916 30.0255C60.1177 30.0255 60.3538 29.8843 63.2352 27.8609C63.2352 27.8609 63.5186 27.7197 63.3769 27.5785C63.2352 27.3433 62.5266 25.5551 62.4322 25.2727Z" fill="#4D5154"/>
<path d="M39.2404 18.12V22.1669C39.2404 23.8139 38.8152 25.4139 36.7841 25.4139C34.4696 25.4139 33.9028 23.3904 33.9028 21.6022C33.9028 19.4376 35.6505 17.7906 37.8705 17.7906H39.0987C39.3821 17.8377 39.2404 18.12 39.2404 18.12ZM48.9235 26.6373H47.8371C47.6954 26.6373 47.6954 26.2138 47.6954 26.2138V14.3084C47.6954 9.03799 44.2945 6.82631 39.0987 6.82631C37.351 6.82631 35.556 7.10865 33.8083 7.76745C33.8083 7.76745 33.5249 8.0498 33.6666 7.48511C33.8083 7.20277 33.9501 6.92043 33.9501 6.92043C33.9501 6.92043 34.0918 6.63808 33.8083 6.49691C33.3832 6.49691 31.7772 5.93223 31.3521 5.83811C31.2104 5.69694 31.2104 5.97928 31.2104 5.97928C31.2104 5.97928 28.4708 12.4732 28.3291 12.7555C28.1874 13.0378 28.4708 13.0378 28.4708 13.0378C28.4708 13.0378 30.6436 13.8378 30.927 13.979C31.2104 13.979 31.2104 13.8378 31.2104 13.8378C32.4385 12.332 33.6666 11.3908 36.2646 11.3908C38.2957 11.3908 39.2404 12.1908 39.2404 13.979V14.6378V14.9201L33.0054 15.2495C28.8959 15.2495 25.6367 18.12 25.6367 23.2492C25.6367 27.4373 28.7542 30.0255 32.8637 30.0255C35.3199 30.0255 37.351 28.9431 39.1459 27.5785C39.1459 27.5785 39.4293 27.0138 39.571 27.5785C39.571 28.002 39.8544 28.5196 39.9961 29.0843C39.9961 29.3667 40.1378 29.3667 40.1378 29.3667H48.829C48.829 29.3667 49.2541 29.5078 49.2541 29.0843V26.9197C49.2069 26.9197 49.2069 26.6373 48.9235 26.6373Z" fill="#4D5154"/>
<path d="M168.618 6.82639C170.932 6.82639 174.617 5.74408 174.617 3.01477C174.617 0.708972 172.444 0.144287 170.507 0.144287C168.476 0.144287 165.453 1.79129 165.453 3.95591C165.5 5.88525 166.728 6.82639 168.618 6.82639Z" fill="#4D5154"/>
<path d="M94.838 12.6617C94.838 10.497 95.4992 9.69707 97.1525 9.69707C100.553 9.69707 102.065 16.3321 102.065 18.7791C102.065 20.9437 101.404 21.7437 99.6087 21.7437C96.1605 21.7437 94.838 15.1086 94.838 12.6617ZM98.3806 30.4493C98.5223 30.3081 98.664 30.3081 98.664 30.3081C100.175 31.2492 101.404 31.9551 101.404 33.9785C101.404 35.0609 100.742 35.6255 99.6559 35.6255C98.2861 35.6255 97.7665 34.4021 97.7665 33.3197C97.672 32.3315 97.9555 30.8728 98.3806 30.4493ZM109.528 15.6733C109.528 10.497 105.182 9.17944 105.182 8.19124C105.182 7.62656 105.466 7.2501 105.985 7.2501C106.93 7.10893 107.072 7.2501 107.497 7.53244C107.497 7.53244 107.639 7.81479 107.78 7.39127C107.78 7.2501 108.583 4.00316 108.725 3.86199C108.725 3.43848 108.442 3.57965 108.442 3.57965C108.016 3.43848 107.497 3.43848 106.93 3.43848C104.474 3.43848 103.671 4.09728 103.104 5.74427C103.104 5.74427 102.679 6.82659 102.679 7.2501C102.537 7.53244 102.396 7.39127 102.396 7.39127C101.167 7.2501 99.7976 6.82659 97.4831 6.82659C92.429 6.82659 87.1387 9.69707 87.1387 16.0498C87.1387 20.5202 90.9647 23.1083 94.7435 23.7671C94.7435 23.7671 95.4048 23.9083 94.7435 24.0495C93.6571 24.473 91.2009 25.8377 88.4612 26.2141C88.4612 26.2141 88.1778 26.3553 88.3195 26.6376C88.4612 26.7788 89.1225 28.6611 89.2642 28.9434C89.4059 29.2258 89.6894 29.2258 89.6894 29.2258C90.9175 28.9434 94.6018 29.2258 95.2631 29.3669C95.8299 29.3669 95.2631 29.5081 95.2631 29.5081C93.3737 29.7905 91.0592 31.2492 91.0592 33.3197C91.0592 36.1432 93.7043 37.3196 96.8218 37.649H101.12C104.332 37.2255 108.772 35.6726 108.772 31.6727C108.772 26.92 101.167 25.9788 97.4831 25.5553C96.9163 25.5553 97.4831 25.4141 97.4831 25.4141C103.151 24.0495 109.528 22.5907 109.528 15.6733Z" fill="#4D5154"/>
<path d="M13.2627 26.6375C11.0899 26.6375 10.3813 24.9905 10.3813 23.1082V12.1439C10.3813 11.8615 10.6647 11.7204 10.6647 11.7204L11.7511 11.5792C13.121 11.5792 17.1832 12.0027 17.1832 20.0024C17.1832 25.0375 15.955 26.6375 13.2627 26.6375ZM16.0968 6.82642C14.0657 6.82642 12.5541 7.62639 10.523 8.84987C10.523 8.84987 10.3813 8.99104 10.3813 8.7087V7.0617C10.3813 6.77936 10.0979 6.92053 10.0979 6.92053L0.603722 9.41456C0.603722 9.41456 0.320312 9.41456 0.320312 9.6969V9.74396V9.79101V9.83807V9.88513V9.93218V9.97924V10.0263V10.0734V10.1204V10.1675V10.2145V10.2616V10.3086V10.3557V10.4028V10.4498V10.4969V10.5439V10.591V10.638V10.6851V10.7322V10.7792V10.8263V10.8733V10.9204V10.9674V11.0145V11.0616V11.1086V11.1557V11.2027V11.2498V11.2968V11.3439V11.391V11.438V11.4851V11.5321V11.5792V11.6262V11.6733V11.7204V11.7674V11.8145V11.8615V11.9086C0.320312 12.1909 0.603722 12.1909 0.603722 12.1909L1.69012 11.9086C1.69012 11.9086 1.97353 11.7674 1.97353 12.0498V33.3666C1.97353 33.3666 1.97353 33.649 1.69012 33.649H0.603722C0.603722 33.649 0.320312 33.649 0.320312 33.9313V33.9784V34.0254V34.0725V34.1195V34.1666V34.0725V34.1195V34.1666V34.2136V34.2607V34.3078V34.3548V34.4019V34.4489V34.496V34.543V34.5901V34.6372V34.543V34.5901V34.6372V34.6842V34.7313V34.7783V34.8254V34.8724V34.9195V34.9666V35.0136V35.0607V35.1077V35.1548V35.2018V35.2489V35.296V35.343V35.3901V35.4371V35.4842V35.5312V35.5783V35.6254V35.6724V35.7195V35.7665V35.8136V35.8606V35.9077V35.9548V36.0018V36.0489V36.0959V36.143C0.320312 36.4253 0.745426 36.4253 0.745426 36.4253H13.121C13.121 36.4253 13.4044 36.2842 13.4044 36.143V33.9784C13.4044 33.696 13.121 33.696 13.121 33.696H10.6647C10.3813 33.696 10.3813 33.4137 10.3813 33.4137V29.3668C10.3813 29.2256 10.523 29.2256 10.523 29.2256C11.7511 29.8844 13.4988 30.0256 14.8686 30.0256C21.6705 30.0256 25.6382 23.767 25.6382 17.5554C25.6382 11.2027 21.4343 6.82642 16.0968 6.82642Z" fill="#4D5154"/>
<path d="M162.382 26.6373H161.154C160.87 26.6373 161.012 26.4961 161.012 26.4961V13.226C161.012 10.779 160.209 6.87329 154.352 6.87329C151.234 6.87329 148.92 8.6144 146.605 10.4026C146.605 10.4026 146.464 10.6849 146.464 10.2614V7.15563C146.464 6.87329 146.18 7.01446 146.18 7.01446L136.497 9.6026C136.497 9.6026 136.355 9.46143 136.355 9.74377V12.0496C136.355 12.3319 136.497 12.1907 136.497 12.1907C136.497 12.1907 137.3 11.9084 137.725 11.7672C138.009 11.7672 137.867 12.0496 137.867 12.0496V26.5432C137.867 26.5432 138.009 26.6843 137.725 26.6843H136.497C136.497 26.6843 136.355 26.6843 136.355 26.9667V29.1313C136.355 29.5548 136.497 29.4136 136.497 29.4136H147.928C147.928 29.4136 148.07 29.4136 148.07 29.2725V26.9667C148.07 26.6843 147.928 26.6843 147.928 26.6843H146.416C146.275 26.6843 146.275 26.5432 146.275 26.5432V14.1671C146.275 14.026 146.416 13.8848 146.416 13.8848C147.503 12.9437 148.589 12.2378 150.101 12.2378C151.329 12.2378 152.557 12.8025 152.557 14.1201V26.449C152.557 26.449 152.557 26.5902 152.415 26.5902H151.046C151.046 26.5902 150.762 26.5902 150.762 26.8726V29.1784C150.762 29.3195 150.904 29.3195 150.904 29.3195H162.335C162.335 29.3195 162.476 29.4607 162.476 29.0372V26.8726C162.476 26.6373 162.382 26.6373 162.382 26.6373Z" fill="#4D5154"/>
<path d="M189.447 22.1669C189.447 23.8139 189.022 25.4139 186.849 25.4139C184.676 25.4139 184.109 23.3904 184.109 21.6022C184.109 19.4376 185.763 17.7906 188.077 17.7906H189.163C189.447 17.7906 189.447 18.073 189.447 18.073V22.1669ZM199.13 26.6373H198.044C197.902 26.6373 197.902 26.2138 197.902 26.2138V14.3084C197.902 9.03799 194.501 6.82631 189.305 6.82631C187.557 6.82631 185.763 7.10865 184.015 7.76745C184.015 7.76745 183.59 8.0498 183.873 7.48511C184.015 7.20277 184.157 6.92043 184.157 6.92043C184.157 6.92043 184.157 6.63808 183.873 6.49691C183.59 6.49691 181.842 5.93223 181.559 5.83811C181.275 5.69694 181.275 5.97928 181.275 5.97928C181.275 5.97928 178.677 12.4732 178.536 12.7555C178.394 13.0378 178.677 13.0378 178.677 13.0378C178.677 13.0378 180.85 13.8378 181.134 13.8378C181.275 13.979 181.417 13.8378 181.417 13.8378C182.645 12.332 183.873 11.3908 186.471 11.3908C188.502 11.3908 189.447 12.1908 189.447 13.979V14.6378C189.447 14.9201 189.305 14.9201 189.305 14.9201L183.165 15.0613C179.055 15.0613 175.654 18.0259 175.654 23.2022C175.654 27.3903 178.772 29.9784 183.023 29.9784C185.479 29.9784 187.369 28.8961 189.305 27.5314C189.305 27.5314 189.589 26.9667 189.73 27.5314C189.73 27.9549 189.872 28.4726 190.014 29.0373C190.155 29.3196 190.297 29.3196 190.297 29.3196H199.036C199.036 29.3196 199.461 29.4608 199.461 29.0373V26.8726C199.413 26.9197 199.413 26.6373 199.13 26.6373Z" fill="#4D5154"/>
<path d="M124.927 26.6375C120.298 26.6375 118.928 18.4966 118.928 15.2496C118.928 13.6026 118.928 10.2145 121.903 10.2145C126.674 10.2145 128.044 18.3554 128.044 21.6023C128.044 24.0493 127.383 26.6375 124.927 26.6375ZM123.415 6.82642C116.046 6.82642 110.473 11.2968 110.473 18.3554C110.473 25.6963 116.046 30.0256 123.415 30.0256C130.784 30.0256 136.499 25.6963 136.499 18.3554C136.499 11.2968 130.784 6.82642 123.415 6.82642Z" fill="#4D5154"/>
<path d="M175.703 26.9199C175.703 26.6375 175.419 26.6375 175.419 26.6375H174.333C174.05 26.6375 174.191 26.4964 174.191 26.4964V7.10884C174.191 6.82649 173.908 6.96767 173.908 6.96767L164.225 9.55581C164.225 9.55581 164.083 9.55581 164.083 9.83815V12.0028C164.083 12.2851 164.367 12.1439 164.367 12.1439C164.367 12.1439 165.028 12.0028 165.595 11.8616C165.878 11.8616 165.736 12.1439 165.736 12.2851V26.5434C165.736 26.5434 165.878 26.6846 165.595 26.6846H164.225C164.225 26.6846 163.941 26.6846 163.941 26.9669V29.2727C163.941 29.5551 164.225 29.4139 164.225 29.4139H175.561C175.845 29.4139 175.703 29.1316 175.703 29.1316V26.9199Z" fill="#4D5154"/>
</svg>
